<mxfile host="app.diagrams.net" modified="2023-02-07T23:35:44.329Z" agent="5.0 (Windows NT 10.0; Win64; x64) AppleWebKit/537.36 (KHTML, like Gecko) Chrome/109.0.0.0 Safari/537.36" etag="guhaJ_xaBGJbT9d_RIrj" version="20.8.14" type="github">
  <diagram id="C5RBs43oDa-KdzZeNtuy" name="Page-1">
    <mxGraphModel dx="1434" dy="764" grid="1" gridSize="10" guides="1" tooltips="1" connect="1" arrows="1" fold="1" page="1" pageScale="1" pageWidth="827" pageHeight="1169" math="0" shadow="0">
      <root>
        <mxCell id="WIyWlLk6GJQsqaUBKTNV-0" />
        <mxCell id="WIyWlLk6GJQsqaUBKTNV-1" parent="WIyWlLk6GJQsqaUBKTNV-0" />
        <mxCell id="rtuh3saGn_Cn9JBXDBB0-0" value="Pokemon" style="swimlane;fontStyle=1;align=center;verticalAlign=top;childLayout=stackLayout;horizontal=1;startSize=26;horizontalStack=0;resizeParent=1;resizeParentMax=0;resizeLast=0;collapsible=1;marginBottom=0;" vertex="1" parent="WIyWlLk6GJQsqaUBKTNV-1">
          <mxGeometry x="30" y="20" width="250" height="294" as="geometry" />
        </mxCell>
        <mxCell id="rtuh3saGn_Cn9JBXDBB0-1" value="id: Interger   " style="text;strokeColor=none;fillColor=none;align=left;verticalAlign=top;spacingLeft=4;spacingRight=4;overflow=hidden;rotatable=0;points=[[0,0.5],[1,0.5]];portConstraint=eastwest;" vertex="1" parent="rtuh3saGn_Cn9JBXDBB0-0">
          <mxGeometry y="26" width="250" height="26" as="geometry" />
        </mxCell>
        <mxCell id="rtuh3saGn_Cn9JBXDBB0-4" value="name: String" style="text;strokeColor=none;fillColor=none;align=left;verticalAlign=top;spacingLeft=4;spacingRight=4;overflow=hidden;rotatable=0;points=[[0,0.5],[1,0.5]];portConstraint=eastwest;" vertex="1" parent="rtuh3saGn_Cn9JBXDBB0-0">
          <mxGeometry y="52" width="250" height="26" as="geometry" />
        </mxCell>
        <mxCell id="rtuh3saGn_Cn9JBXDBB0-5" value="&lt;&lt;types&gt;&gt;: Type" style="text;strokeColor=none;fillColor=none;align=left;verticalAlign=top;spacingLeft=4;spacingRight=4;overflow=hidden;rotatable=0;points=[[0,0.5],[1,0.5]];portConstraint=eastwest;" vertex="1" parent="rtuh3saGn_Cn9JBXDBB0-0">
          <mxGeometry y="78" width="250" height="26" as="geometry" />
        </mxCell>
        <mxCell id="rtuh3saGn_Cn9JBXDBB0-7" value="&lt;&lt;locations&gt;&gt;: Location" style="text;strokeColor=none;fillColor=none;align=left;verticalAlign=top;spacingLeft=4;spacingRight=4;overflow=hidden;rotatable=0;points=[[0,0.5],[1,0.5]];portConstraint=eastwest;" vertex="1" parent="rtuh3saGn_Cn9JBXDBB0-0">
          <mxGeometry y="104" width="250" height="26" as="geometry" />
        </mxCell>
        <mxCell id="rtuh3saGn_Cn9JBXDBB0-6" value="&lt;&lt;abilities&gt;&gt;: Ability" style="text;strokeColor=none;fillColor=none;align=left;verticalAlign=top;spacingLeft=4;spacingRight=4;overflow=hidden;rotatable=0;points=[[0,0.5],[1,0.5]];portConstraint=eastwest;" vertex="1" parent="rtuh3saGn_Cn9JBXDBB0-0">
          <mxGeometry y="130" width="250" height="26" as="geometry" />
        </mxCell>
        <mxCell id="rtuh3saGn_Cn9JBXDBB0-8" value="hp:Integer" style="text;strokeColor=none;fillColor=none;align=left;verticalAlign=top;spacingLeft=4;spacingRight=4;overflow=hidden;rotatable=0;points=[[0,0.5],[1,0.5]];portConstraint=eastwest;" vertex="1" parent="rtuh3saGn_Cn9JBXDBB0-0">
          <mxGeometry y="156" width="250" height="26" as="geometry" />
        </mxCell>
        <mxCell id="rtuh3saGn_Cn9JBXDBB0-9" value="imageUrl: String" style="text;strokeColor=none;fillColor=none;align=left;verticalAlign=top;spacingLeft=4;spacingRight=4;overflow=hidden;rotatable=0;points=[[0,0.5],[1,0.5]];portConstraint=eastwest;" vertex="1" parent="rtuh3saGn_Cn9JBXDBB0-0">
          <mxGeometry y="182" width="250" height="26" as="geometry" />
        </mxCell>
        <mxCell id="rtuh3saGn_Cn9JBXDBB0-2" value="" style="line;strokeWidth=1;fillColor=none;align=left;verticalAlign=middle;spacingTop=-1;spacingLeft=3;spacingRight=3;rotatable=0;labelPosition=right;points=[];portConstraint=eastwest;strokeColor=inherit;" vertex="1" parent="rtuh3saGn_Cn9JBXDBB0-0">
          <mxGeometry y="208" width="250" height="8" as="geometry" />
        </mxCell>
        <mxCell id="rtuh3saGn_Cn9JBXDBB0-3" value="getAllPokemons():&lt;&lt;pokemon&gt;&gt;" style="text;strokeColor=none;fillColor=none;align=left;verticalAlign=top;spacingLeft=4;spacingRight=4;overflow=hidden;rotatable=0;points=[[0,0.5],[1,0.5]];portConstraint=eastwest;" vertex="1" parent="rtuh3saGn_Cn9JBXDBB0-0">
          <mxGeometry y="216" width="250" height="26" as="geometry" />
        </mxCell>
        <mxCell id="rtuh3saGn_Cn9JBXDBB0-10" value="getPokemonByld(): Pokemon" style="text;strokeColor=none;fillColor=none;align=left;verticalAlign=top;spacingLeft=4;spacingRight=4;overflow=hidden;rotatable=0;points=[[0,0.5],[1,0.5]];portConstraint=eastwest;" vertex="1" parent="rtuh3saGn_Cn9JBXDBB0-0">
          <mxGeometry y="242" width="250" height="26" as="geometry" />
        </mxCell>
        <mxCell id="rtuh3saGn_Cn9JBXDBB0-11" value="generateImageUrl(): void" style="text;strokeColor=none;fillColor=none;align=left;verticalAlign=top;spacingLeft=4;spacingRight=4;overflow=hidden;rotatable=0;points=[[0,0.5],[1,0.5]];portConstraint=eastwest;" vertex="1" parent="rtuh3saGn_Cn9JBXDBB0-0">
          <mxGeometry y="268" width="250" height="26" as="geometry" />
        </mxCell>
        <mxCell id="rtuh3saGn_Cn9JBXDBB0-12" value="type" style="swimlane;fontStyle=1;align=center;verticalAlign=top;childLayout=stackLayout;horizontal=1;startSize=26;horizontalStack=0;resizeParent=1;resizeParentMax=0;resizeLast=0;collapsible=1;marginBottom=0;" vertex="1" parent="WIyWlLk6GJQsqaUBKTNV-1">
          <mxGeometry x="414" y="10" width="160" height="52" as="geometry" />
        </mxCell>
        <mxCell id="rtuh3saGn_Cn9JBXDBB0-13" value="+ field: type" style="text;strokeColor=none;fillColor=none;align=left;verticalAlign=top;spacingLeft=4;spacingRight=4;overflow=hidden;rotatable=0;points=[[0,0.5],[1,0.5]];portConstraint=eastwest;" vertex="1" parent="rtuh3saGn_Cn9JBXDBB0-12">
          <mxGeometry y="26" width="160" height="26" as="geometry" />
        </mxCell>
        <mxCell id="rtuh3saGn_Cn9JBXDBB0-16" value="ability" style="swimlane;fontStyle=1;align=center;verticalAlign=top;childLayout=stackLayout;horizontal=1;startSize=26;horizontalStack=0;resizeParent=1;resizeParentMax=0;resizeLast=0;collapsible=1;marginBottom=0;" vertex="1" parent="WIyWlLk6GJQsqaUBKTNV-1">
          <mxGeometry x="450" y="144" width="160" height="52" as="geometry" />
        </mxCell>
        <mxCell id="rtuh3saGn_Cn9JBXDBB0-17" value="+ field: type" style="text;strokeColor=none;fillColor=none;align=left;verticalAlign=top;spacingLeft=4;spacingRight=4;overflow=hidden;rotatable=0;points=[[0,0.5],[1,0.5]];portConstraint=eastwest;" vertex="1" parent="rtuh3saGn_Cn9JBXDBB0-16">
          <mxGeometry y="26" width="160" height="26" as="geometry" />
        </mxCell>
        <mxCell id="rtuh3saGn_Cn9JBXDBB0-20" value="location" style="swimlane;fontStyle=1;align=center;verticalAlign=top;childLayout=stackLayout;horizontal=1;startSize=26;horizontalStack=0;resizeParent=1;resizeParentMax=0;resizeLast=0;collapsible=1;marginBottom=0;" vertex="1" parent="WIyWlLk6GJQsqaUBKTNV-1">
          <mxGeometry x="430" y="290" width="170" height="52" as="geometry" />
        </mxCell>
        <mxCell id="rtuh3saGn_Cn9JBXDBB0-21" value="+ field: type" style="text;strokeColor=none;fillColor=none;align=left;verticalAlign=top;spacingLeft=4;spacingRight=4;overflow=hidden;rotatable=0;points=[[0,0.5],[1,0.5]];portConstraint=eastwest;" vertex="1" parent="rtuh3saGn_Cn9JBXDBB0-20">
          <mxGeometry y="26" width="170" height="26" as="geometry" />
        </mxCell>
        <mxCell id="rtuh3saGn_Cn9JBXDBB0-32" value="USER" style="shape=umlActor;verticalLabelPosition=bottom;verticalAlign=top;html=1;outlineConnect=0;" vertex="1" parent="WIyWlLk6GJQsqaUBKTNV-1">
          <mxGeometry x="50" y="635" width="40" height="100" as="geometry" />
        </mxCell>
        <mxCell id="rtuh3saGn_Cn9JBXDBB0-35" value="DISPLAY POKEMON" style="ellipse;whiteSpace=wrap;html=1;" vertex="1" parent="WIyWlLk6GJQsqaUBKTNV-1">
          <mxGeometry x="280" y="540" width="120" height="80" as="geometry" />
        </mxCell>
        <mxCell id="rtuh3saGn_Cn9JBXDBB0-36" value="BACK TO LIST" style="ellipse;whiteSpace=wrap;html=1;" vertex="1" parent="WIyWlLk6GJQsqaUBKTNV-1">
          <mxGeometry x="280" y="770" width="120" height="80" as="geometry" />
        </mxCell>
        <mxCell id="rtuh3saGn_Cn9JBXDBB0-37" value="CLICK ON POKEMON" style="ellipse;whiteSpace=wrap;html=1;" vertex="1" parent="WIyWlLk6GJQsqaUBKTNV-1">
          <mxGeometry x="294" y="655" width="120" height="80" as="geometry" />
        </mxCell>
        <mxCell id="rtuh3saGn_Cn9JBXDBB0-47" value="" style="endArrow=none;html=1;rounded=0;exitX=0;exitY=0.5;exitDx=0;exitDy=0;entryX=0.5;entryY=0.5;entryDx=0;entryDy=0;entryPerimeter=0;" edge="1" parent="WIyWlLk6GJQsqaUBKTNV-1" source="rtuh3saGn_Cn9JBXDBB0-35" target="rtuh3saGn_Cn9JBXDBB0-32">
          <mxGeometry width="50" height="50" relative="1" as="geometry">
            <mxPoint x="300" y="920" as="sourcePoint" />
            <mxPoint x="350" y="870" as="targetPoint" />
          </mxGeometry>
        </mxCell>
        <mxCell id="rtuh3saGn_Cn9JBXDBB0-48" value="" style="endArrow=none;html=1;rounded=0;exitX=0;exitY=0.5;exitDx=0;exitDy=0;entryX=0.5;entryY=0.5;entryDx=0;entryDy=0;entryPerimeter=0;" edge="1" parent="WIyWlLk6GJQsqaUBKTNV-1" source="rtuh3saGn_Cn9JBXDBB0-37" target="rtuh3saGn_Cn9JBXDBB0-32">
          <mxGeometry width="50" height="50" relative="1" as="geometry">
            <mxPoint x="300" y="920" as="sourcePoint" />
            <mxPoint x="350" y="870" as="targetPoint" />
          </mxGeometry>
        </mxCell>
        <mxCell id="rtuh3saGn_Cn9JBXDBB0-49" value="" style="endArrow=none;html=1;rounded=0;exitX=0;exitY=0.5;exitDx=0;exitDy=0;entryX=0.5;entryY=0.5;entryDx=0;entryDy=0;entryPerimeter=0;" edge="1" parent="WIyWlLk6GJQsqaUBKTNV-1" source="rtuh3saGn_Cn9JBXDBB0-36" target="rtuh3saGn_Cn9JBXDBB0-32">
          <mxGeometry width="50" height="50" relative="1" as="geometry">
            <mxPoint x="300" y="920" as="sourcePoint" />
            <mxPoint x="350" y="870" as="targetPoint" />
          </mxGeometry>
        </mxCell>
        <mxCell id="rtuh3saGn_Cn9JBXDBB0-62" value="" style="endArrow=none;html=1;rounded=0;entryX=-0.006;entryY=0.115;entryDx=0;entryDy=0;entryPerimeter=0;exitX=1.008;exitY=0.154;exitDx=0;exitDy=0;exitPerimeter=0;" edge="1" parent="WIyWlLk6GJQsqaUBKTNV-1" source="rtuh3saGn_Cn9JBXDBB0-6" target="rtuh3saGn_Cn9JBXDBB0-13">
          <mxGeometry width="50" height="50" relative="1" as="geometry">
            <mxPoint x="300" y="180" as="sourcePoint" />
            <mxPoint x="350" y="130" as="targetPoint" />
          </mxGeometry>
        </mxCell>
        <mxCell id="rtuh3saGn_Cn9JBXDBB0-65" value="0*" style="edgeLabel;html=1;align=center;verticalAlign=middle;resizable=0;points=[];" vertex="1" connectable="0" parent="rtuh3saGn_Cn9JBXDBB0-62">
          <mxGeometry x="-0.7874" y="-2" relative="1" as="geometry">
            <mxPoint x="-1" as="offset" />
          </mxGeometry>
        </mxCell>
        <mxCell id="rtuh3saGn_Cn9JBXDBB0-66" value="1*" style="edgeLabel;html=1;align=center;verticalAlign=middle;resizable=0;points=[];" vertex="1" connectable="0" parent="rtuh3saGn_Cn9JBXDBB0-62">
          <mxGeometry x="0.6985" relative="1" as="geometry">
            <mxPoint as="offset" />
          </mxGeometry>
        </mxCell>
        <mxCell id="rtuh3saGn_Cn9JBXDBB0-63" value="" style="endArrow=none;html=1;rounded=0;exitX=-0.006;exitY=0.077;exitDx=0;exitDy=0;exitPerimeter=0;entryX=1.004;entryY=0.846;entryDx=0;entryDy=0;entryPerimeter=0;" edge="1" parent="WIyWlLk6GJQsqaUBKTNV-1" source="rtuh3saGn_Cn9JBXDBB0-17" target="rtuh3saGn_Cn9JBXDBB0-6">
          <mxGeometry width="50" height="50" relative="1" as="geometry">
            <mxPoint x="300" y="180" as="sourcePoint" />
            <mxPoint x="350" y="130" as="targetPoint" />
          </mxGeometry>
        </mxCell>
        <mxCell id="rtuh3saGn_Cn9JBXDBB0-67" value="0*" style="edgeLabel;html=1;align=center;verticalAlign=middle;resizable=0;points=[];" vertex="1" connectable="0" parent="rtuh3saGn_Cn9JBXDBB0-63">
          <mxGeometry x="0.8215" y="-3" relative="1" as="geometry">
            <mxPoint as="offset" />
          </mxGeometry>
        </mxCell>
        <mxCell id="rtuh3saGn_Cn9JBXDBB0-68" value="1*" style="edgeLabel;html=1;align=center;verticalAlign=middle;resizable=0;points=[];" vertex="1" connectable="0" parent="rtuh3saGn_Cn9JBXDBB0-63">
          <mxGeometry x="-0.7496" y="-1" relative="1" as="geometry">
            <mxPoint as="offset" />
          </mxGeometry>
        </mxCell>
        <mxCell id="rtuh3saGn_Cn9JBXDBB0-64" value="" style="endArrow=none;html=1;rounded=0;entryX=-0.024;entryY=-0.038;entryDx=0;entryDy=0;entryPerimeter=0;exitX=1;exitY=0.5;exitDx=0;exitDy=0;" edge="1" parent="WIyWlLk6GJQsqaUBKTNV-1" source="rtuh3saGn_Cn9JBXDBB0-8" target="rtuh3saGn_Cn9JBXDBB0-21">
          <mxGeometry width="50" height="50" relative="1" as="geometry">
            <mxPoint x="300" y="180" as="sourcePoint" />
            <mxPoint x="350" y="130" as="targetPoint" />
          </mxGeometry>
        </mxCell>
        <mxCell id="rtuh3saGn_Cn9JBXDBB0-69" value="0*" style="edgeLabel;html=1;align=center;verticalAlign=middle;resizable=0;points=[];" vertex="1" connectable="0" parent="rtuh3saGn_Cn9JBXDBB0-64">
          <mxGeometry x="-0.7952" y="-1" relative="1" as="geometry">
            <mxPoint as="offset" />
          </mxGeometry>
        </mxCell>
        <mxCell id="rtuh3saGn_Cn9JBXDBB0-70" value="1*" style="edgeLabel;html=1;align=center;verticalAlign=middle;resizable=0;points=[];" vertex="1" connectable="0" parent="rtuh3saGn_Cn9JBXDBB0-64">
          <mxGeometry x="0.7429" relative="1" as="geometry">
            <mxPoint as="offset" />
          </mxGeometry>
        </mxCell>
      </root>
    </mxGraphModel>
  </diagram>
</mxfile>
